<svg version="1" xmlns="http://www.w3.org/2000/svg" width="333.333" height="333.333" viewBox="0 0 250.000000 250.000000"><path d="M120 24.6c0 .3.9 2.1 2 3.9l2.1 3.3-4.8-1.5c-9.4-2.9-40-2.9-39 0 .2.6 3.6 2.4 7.6 4.1l7.3 2.9-6.6 1.7c-6.9 1.7-12.1 5-8 5 3.4 0 13.3 2.9 16.1 4.7l2.6 1.7-6.4 2.2c-3.5 1.1-9.2 3.5-12.6 5.3-3.4 1.7-7.5 3.1-9.1 3.1-5.8 0-12.9 2.9-17 7-4.4 4.5-6.2 9.6-6.3 18 0 3-.1 7.7-.2 10.5-.1 2.7.1 5.6.3 6.4.4.9-1.9 2.1-7.5 4-5 1.7-8.1 3.3-8.3 4.2-.8 4 19.6 17.3 29.6 19.4 1.7.4 3.2 1.1 3.2 1.6 0 1.3-6.9 5.5-11.2 6.9-2.1.6-4 1.5-4.3 2-.9 1.4 5.2 5.7 11.2 8 4.9 1.9 7.3 2.1 15.3 1.7 9.3-.4 9.6-.3 17.5 3.4 12.9 6.1 23.4 8.2 39.3 7.7l13.3-.5 2.1 3.9c4.4 7.8 13.8 11.9 27.3 12.1 7 .1 10-.4 13.5-1.9l4.4-2 2.9 3.3c1.7 1.9 4.2 3.5 6.2 3.9 3 .5 3.4 1.1 4.4 5.2 1.7 7 3.2 10.2 4.7 10.2.8 0 1.4-.6 1.4-1.2 0-.7.7-.2 1.6 1 2.4 3.5 3.4 2.6 3.4-3.2 0-5.2 1.1-7.8 2.5-5.6 1 1.6 3.5 1.2 3.5-.5 0-1.2.4-1.3 1.9-.5 4.2 2.2 4.1.6-.3-7-1.9-3.2-4.4-8.6-5.7-12-2.3-6.3-5.3-11-7-11-.5 0-1.9 2.1-3 4.7-2.2 5.4-4.2 7.3-7.6 7.3h-2.2l2.4-4.6c1.4-2.6 2.5-6.4 2.5-8.4 0-3.4.3-3.8 4.1-4.9 5-1.5 11.4-7.1 14.1-12.5 2.5-4.9 2.2-13.6-.8-18.1l-1.9-2.9-.6 2.9-.6 3-1.1-2.8c-.7-1.6-1.2-3.1-1.2-3.5 0-1-4.5-7.2-5.2-7.2-.5 0-.8 1.1-.8 2.5 0 2.4-.2 2.3-3.6-1.5-2-2.2-3.9-4-4.3-4-.3 0-.6 3.5-.6 7.8 0 6.6-.4 8.4-2.9 12.9-4.1 7.4-5.5 8.6-9.4 7.2l-3-1 2.4-4.7c4-7.7 5-15.4 3.1-24.4-2.6-12.6-6.7-20-17.2-30.4-5.9-6-10.8-12.1-14-17.5-7.1-11.9-18-22.6-27.5-27.2-7.5-3.6-14-5.5-14-4.1zm-18 8.9c0 .2-.9.3-1.9.2-1.1 0-1.8-.5-1.5-.9.4-.6 3.4 0 3.4.7zm31.7.8c.6-.2 1.4.1 1.8.6.4.7-.1.8-1.2.4-1.7-.6-1.7-.5-.2 1.3.9 1 1.9 3.1 2.3 4.6.5 2.3 1.2 2.8 3.6 2.8 1.7 0 3-.5 3-1.1 0-.8.5-.8 1.5.1.8.7 1.2 1.7.9 2.2-.4.6-1 .5-1.5-.3-.7-1.1-1-.9-1.5.9s-.9 2-2 1.1c-1.2-.9-1.3-.6-.7 2.1.4 2.2.3 3.1-.4 2.7-.6-.4-1.3-2-1.6-3.7-.7-3.1-3-8.4-6.1-13.5-1-1.7-1.2-2.3-.5-1.4.8.9 1.9 1.4 2.6 1.2zm-26.6-.4c-.8.5-2 .7-2.8.4-2.1-.8-1.5-1.3 1.5-1.3 2 0 2.3.3 1.3.9zm6.6.7c-.3.3-1.2.4-1.9.1-.8-.3-.5-.6.6-.6 1.1-.1 1.7.2 1.3.5zm3.7 1.3c.3.5-.6.8-2 .8-1.9 0-2.2-.2-1.3-.8 1.8-1.1 2.6-1.1 3.3 0zm-11.8 1.6c.4.8 1 1.2 1.5.9.5-.3.9 0 .9.6s.4.9.9.6c.5-.4.8.2.6 1.1-.1 1 .2 2.5.8 3.3.6.8-.4.1-2.1-1.7-1.8-1.8-3.2-3.6-3.2-4.2 0-.5-.6-1.2-1.2-1.4-1-.4-1-.6 0-.6.7-.1 1.5.6 1.8 1.4zm35.8 3.4c-.3.3-.9 0-1.3-.8-.5-.7-1.2-1.2-1.7-1.1-.5 0-1.1-.7-1.3-1.7-.3-1.5.1-1.4 2.3.6 1.4 1.4 2.3 2.7 2 3zM121.5 38c-.3.5-1.2 1-1.8 1-.7 0-.6-.4.3-1 1.9-1.2 2.3-1.2 1.5 0zm5.1 2.7c-.8.8-3.6-.5-3.6-1.7 0-.7.6-.7 2.1 0 1.1.7 1.8 1.4 1.5 1.7zM115 43c0 1.1-.4 2-1 2-.5 0-1-.2-1-.4s-.3-1.1-.6-2c-.4-1.1-.1-1.6 1-1.6.9 0 1.6.8 1.6 2zm17.2 1.5c.4.5.8 1.7.7 2.5 0 .8-.7.3-1.5-1.3-1.5-2.9-3-3.7-2-1.2.4 1-.1 1.5-1.4 1.5-2.3 0-2.7-1.8-.5-2.6.8-.4 1.2-1.1.8-1.8-.8-1.2 2.8 1.3 3.9 2.9zm-31.6-.2c.1 1.1 0 1.2-.3.3-.2-.9-1.6-1.4-3.4-1.4-1.6.1-3.3-.2-3.7-.6-.4-.4 1.1-.6 3.3-.4 2.9.2 4 .8 4.1 2.1zm4.8-.1c2.4 1 2.4 1.2.8 2.5-1.6 1.3-1.5 1.4.5.8 1.3-.3 3.1-.2 4 .4 1.6.9 1.5 1-.7.9-4.2 0-7-.8-7-1.9 0-.6.4-.8.9-.4.5.3 1.2.1 1.6-.5.3-.5-.1-1-.9-1s-1.8-.5-2.1-1c-.8-1.3-.2-1.3 2.9.2zM115 47c0 .5-.4 1-.9 1-.6 0-1.3-.5-1.6-1-.3-.6.1-1 .9-1 .9 0 1.6.4 1.6 1zm36 4.1c0 .4-.4 1-.9 1.3-.5.3-1.1-.8-1.3-2.6-.5-2.8-.4-2.9.9-1.3.7 1.1 1.3 2.2 1.3 2.6zm-14.8 4.1c-1.4 1.4-3.3-2.2-2.5-5.1.5-2.1.6-2.1 2.1.9 1 2.2 1.2 3.4.4 4.2zm-17.7-4.3c-1.9.8-1.9.8 0 2 1.8 1.1 1.8 1.2.2.7-1-.3-2.7-.6-3.8-.6-2.6 0-2.4-1.8.4-2.3 3.7-.7 5.3-.6 3.2.2zm-8.3 1.9c-1.3.4-2.3 1.1-2.2 1.7.1.5-.4 1.1-1.2 1.3-.9.2-.8 0 .2-.8 1.2-.9 1-1.1-1.3-.7-1.6.2-2.5.1-2-.3 1-1 4.1-1.8 6.8-1.8 1.7 0 1.6.1-.3.6zm32.3 1.2c-.3.5-1.2 1-1.8 1-.7 0-.6-.4.3-1 1.9-1.2 2.3-1.2 1.5 0zm6.9 2.6c-.1 1.3.1 2.2.5 1.9 1.1-.6 7.1 4 9.2 7.1 1.1 1.7 1.8 2.1 2.1 1.3.3-.9 2 .1 4.9 2.8 3.2 3 3.9 4.1 2.4 3.9-1.1-.2-1.9-.8-1.8-1.4.4-1.6-2.3-3.3-5.8-3.7-3.1-.4-5.4-1.5-3.1-1.5.9 0 .9-.5 0-1.9-.6-1.1-1.8-1.7-2.6-1.3-1.1.4-1.3.1-.7-.8.6-1 .4-1.2-.8-.7-1.1.4-1.4.2-1.1-.8.4-.9-.3-1.5-2.2-1.7-2.3-.2-2.8-.8-3-3.5-.2-2.2.1-3 1-2.7.7.3 1.2 1.6 1 3zM101 55.1c0 .5-.4.7-1 .4-.5-.3-1-.1-1 .4 0 .6-.7 1.1-1.5 1.1-2.1 0-1.9-1.8.3-2.3 2.9-.8 3.2-.7 3.2.4zm54.8 2c1 1.7 1 2 .1.8-1.4-1.6-2-1.9-4-1.9-.5 0-.7-.5-.4-1.1 1-1.5 2.6-.7 4.3 2.2zm-64.3.9c-.3.5-1.1 1-1.6 1-.6 0-.7-.5-.4-1 .3-.6 1.1-1 1.6-1 .6 0 .7.4.4 1zm4 1c.4.6-.1.7-1.1.3-1.4-.5-1.5-.3-.5 1.6 1 1.8.8 2.4-1.6 4.5-2.5 2.2-2.9 2.2-5 .9-1.3-.8-2-1.9-1.7-2.4.5-.8-1-1.3-2.9-1-.5.1-.6-.3-.2-.8.3-.6 1.3-.7 2.2-.4 1 .4 1.4.2 1-.4-.4-.6 0-1.3.8-1.6.9-.4 1.2-.1.9.7-.3.8-.1 1.7.5 2.1 1.8 1 1.3 2.5-.6 1.9-1.5-.5-1.5-.4-.3.4 1 .8 1.8.8 2.7 0 .7-.6 1.3-.7 1.3-.3 0 .4.7.2 1.6-.6 1.4-1.1 1.4-1.3-.1-2.2-1.3-.7-1.4-1.2-.4-2.3 1.3-1.6 2.5-1.8 3.4-.4zm19.7 1.1c-.4.3-3.2.3-6.2-.1l-5.5-.8 6.2.1c3.4.1 5.9.4 5.5.8zm8.6 1.4c-.3.3-.9-.2-1.2-1.2-.6-1.4-.5-1.5.5-.6.7.7 1 1.5.7 1.8zm-23.8-.1c-3.8 1.3-5.4 1.1-3-.4.8-.6 2.6-1 4-.9 2.2 0 2 .2-1 1.3zm22 .6c0 .5-.5 1-1.1 1-.5 0-.7-.5-.4-1 .3-.6.8-1 1.1-1 .2 0 .4.4.4 1zm-2 4.5c8.3 4.2 13 11.3 13 19.9 0 6.1-2.3 6.8-4 1.3-2-6.9-8.2-12.3-14.5-12.7-7.9-.6-9.7 0-13.6 3.9-3.4 3.4-3.9 4.4-3.9 8.6 0 7.9 4.4 13.2 13.5 16.2l4 1.3-4.5-.6c-9.4-1.2-18.5-8.2-21.1-16.2-1.7-5.3-.7-12.5 2.5-16.7 6.3-8.2 18-10.3 28.6-5zm-41.2-1.1c2.2.8 5.2 2.2 6.5 3.1 2.5 1.6 2.5 1.7.9 5.4-1.6 3.8-1.6 3.8-4.9 2.5-7.1-3-15.9-.7-19.4 5-3.1 5.1-2.3 9.2 2.8 14.7 2.6 2.8 2.4 3.2-1.9 4.3-2.4.6-3.2.1-6.2-4.1-8.7-11.9-6.3-24.3 5.8-29.9 5.9-2.7 10.6-3 16.4-1zm49.4.5c-.1.6 1.2 2 2.9 3s3.1 2.3 3.1 2.7c0 .5.3 1.5.6 2.2 1 2.6-.6 2.2-1.7-.5-.6-1.5-2.7-3.9-4.6-5.2-1.9-1.3-3.2-2.8-2.9-3.3.8-1.2 3-.3 2.6 1.1zm9.6 7.1c-.1 2.6-.4 3.6-1 2.8-1.1-1.8-1-6.8.2-6.8.5 0 .9 1.8.8 4zm36.2 6.6c0 .7.5 1.5 1 1.7.6.3.6.5-.1.3-.6-.1-1.7-1.7-2.5-3.6-1.2-3.1-1.2-3.3.1-1.6.8 1.1 1.5 2.5 1.5 3.2zM120 82c2.5 2.5 2.5 4.6.1 6-1.8.9-7.1-.1-7.1-1.4 0-.2-.3-1.1-.6-1.9-.6-1.7 2.1-4.7 4.2-4.7.8 0 2.3.9 3.4 2zm-37.2.2c3.1 3.1-.2 7.4-4.4 5.8-2.4-.9-3.6-3.3-2.8-5.5.7-1.8 5.5-2 7.2-.3zm95.8 7.3c1.9 4.7 1.8 5.6-.5 2.1-1.7-2.5-2-2.6-2.4-1-.3 1.4-.5 1.2-.6-.7-.1-2.3.6-3.9 1.6-3.9.2 0 1.1 1.6 1.9 3.5zM139.5 88c-.3.5-1.2 1-1.8 1-.7 0-.6-.4.3-1 1.9-1.2 2.3-1.2 1.5 0zm9.2-.4c-.3.3-1.2.4-1.9.1-.8-.3-.5-.6.6-.6 1.1-.1 1.7.2 1.3.5zm3.3.2c0 .5-.7 1.7-1.5 2.8-1.4 1.8-1.4 1.7-.4-.9 1.2-2.7 1.9-3.4 1.9-1.9zm-5.3 3.8c-.3.3-1.2.4-1.9.1-.8-.3-.5-.6.6-.6 1.1-.1 1.7.2 1.3.5zm-4.3 2c.4.9.4 1.9.1 2.2-.3.3-.5 0-.5-.6 0-1.9-2.4-1.4-3.8.8-.7 1.1-1.8 2-2.5 2-.8 0-.7-.4.3-1 1.1-.7.2-.9-3-.5-2.9.3-4 .2-3.1-.4.8-.5 2.1-.7 2.9-.3 1.1.4 1.3.1.7-.7-.6-1-.2-1.1 1.5-.6 1.5.5 2 .4 1.6-.4-.5-.7-.1-.9.8-.5.9.3 1.6.1 1.6-.5 0-1.7 2.7-1.3 3.4.5zm-90.1 4.9c-.7 2.1-1.2 1.9-1-.4 0-1.1.5-1.8.9-1.5.4.3.5 1.1.1 1.9zm128.4 7.2c-.2 2.1-.4.6-.4-3.2 0-3.9.2-5.5.4-3.8.2 1.8.2 5 0 7zm-52.5-6.3c.4 2.2.2 2.4-2.4 2.1-1.9-.3-2.6 0-2.2.7.4.6.3.9-.2.6-1.2-.8-3.5 1.7-2.6 2.8.4.4.2.4-.5 0-.6-.3-1.4-.2-1.8.4-.3.5-.1 1 .4 1 .6 0 1.1.5 1.1 1s-.3.9-.7.9c-2-.3-2.6.2-1.3 1.2 1.3.9 1.3 1 0 .7-.8-.1-2.6.3-4 1-2.2 1.2-2.3 1.1-.7-.1.9-.8 1.7-1.8 1.7-2.3 0-.6 2.2-3.1 4.8-5.7 3.9-3.9 5-4.5 6.1-3.5 1.1 1.1 1.3 1 .8-.4-.5-1.3 0-2.8.9-2.8.1 0 .4 1.1.6 2.4zm48.8.2c0 1.4-.4 2.3-1 1.9-.5-.3-1-1.5-1-2.6 0-1 .5-1.9 1-1.9.6 0 1 1.2 1 2.6zm-82.1 7.2c4.4 5.1 5.1 7.1 2.4 7.3-1 .1.6.5 3.5.9 7 1 11.2 2.9 11.2 4.9 0 3.4-5.2 12-10.1 16.6-8.7 8.2-23.7 13.5-33.8 12-5-.7-15.1-4.9-15.1-6.2 0-.4 2-1.6 4.5-2.6 2.4-1 6.1-3.2 8.1-4.7 2.8-2.3 4.3-2.8 6.7-2.4 6 1.1 6.1 1.2 2.8 4.9-1.7 2-3.1 4.1-3.1 4.7 0 .7-2.9.9-9 .6-6.7-.3-8.6-.1-7.3.6 1 .6 6.5 1.1 12.3 1.1 9.3 0 11.2-.3 16.2-2.7 3.1-1.4 7.6-4.4 10-6.5 2.4-2.1 5.6-4.7 7.1-5.7l2.9-1.8-.7 2.4c-.6 1.8-.4 2 .5 1.2.6-.7 1-2 .8-2.9-.4-2.1-3.4-4.2-4.5-3.2-.4.5-.2 1.2.5 1.6 2.4 1.5-8.7 4.1-17.3 4.1-14.3 0-29.2-5.1-41.3-14.2-2.9-2.1-5-4.3-4.7-4.8 1.1-1.7 35.7-11.8 45.5-13.2 3.1-.5 6.8 2 11.9 8zm-40.1-4.7c-1.7 1-2.8.2-2.1-1.7.4-1.1.8-1.2 2-.3 1.1 1 1.1 1.4.1 2zm45.6 3.8c-.2.3-1.2-.3-2.2-1.3-1.6-1.7-1.6-1.8.5-.5 1.2.7 2 1.5 1.7 1.8zm6.6 2.2c0 1.4-2.7 1-3.3-.5-.4-1 0-1.2 1.4-.9 1 .3 1.9.9 1.9 1.4zm-.9 3.9c.6 0 .7-.6.3-1.3-.4-.6.2-.3 1.3.8 1.6 1.6 1.7 2.1.6 2.3-1.6.4-6.3-3.5-6.3-5.2 0-.6.7 0 1.6 1.2.8 1.2 2 2.2 2.5 2.2zm4.9-2c-1.3 2.4-2.2 2.7-1.3.3.5-1.2.3-1.4-.7-.8-.9.5-1.1.4-.6-.3.4-.7 1.4-1.2 2.2-1.2 1.2 0 1.2.4.4 2zm6 10.7c0 2.4-.4 4.3-.8 4.3s-.6-1.6-.4-3.5c.3-2.4-.1-4.2-1.2-5.4-.9-1-1.3-2.1-.9-2.5 1.4-1.4 3.3 2.8 3.3 7.1zm1.7-3.5c-.3.8-.6.5-.6-.6-.1-1.1.2-1.7.5-1.3.3.3.4 1.2.1 1.9zm59 0c-.3.8-.6.5-.6-.6-.1-1.1.2-1.7.5-1.3.3.3.4 1.2.1 1.9zm31.2 8.6c.1 5.5-1.1 9.1-3.6 10.5-.7.5-1.1 1.2-.8 1.7.3.5 0 1.2-.6 1.6-.7.4-.9.3-.6-.3.9-1.5-2.3-2.6-3.8-1.3-.6.5-1.5.7-1.8.3-.4-.3-.7.1-.7 1.1s-.5 1.4-1.1 1c-1.8-1.1 2.2-4.3 5.8-4.6 2.7-.2 3.2-.6 2.7-2-.3-1-.2-1.8.3-1.7 2.1.4 3.3-.2 3.3-1.5 0-2.4-2-2.9-3.5-1-2 2.6-1.7.7.5-4.1 1.3-2.8 1.8-3.2 1.4-1.4-.3 1.5-.1 3 .5 3.3.6.4.8-1.4.6-5.1-.2-3.6-.1-5 .4-3.8.5 1.1.9 4.4 1 7.3zm-36-1.7c-1.3 2.5-1.4 2.4-1.6-1.2-.2-2.6 0-2.9 1.2-1.9 1.1.9 1.2 1.7.4 3.1zm-58.8 4.2c-1 .9-1.1.8-.5-.6.3-1 .9-1.5 1.2-1.2.3.3 0 1.1-.7 1.8zm53 .7c-1.8 1.7-4.3 2.9-5.5 2.9-2.1-.2-2.1-.2 0-.6 1.1-.2 3.1-1.5 4.5-2.8 1.3-1.3 2.9-2.4 3.4-2.4.6 0-.5 1.3-2.4 2.9zm-50.3 2.5c.3.3-.4.4-1.6.2-1.2-.2-2.4-.6-2.8-1-.4-.3.4-.4 1.6-.2 1.2.2 2.5.7 2.8 1zm85.7 1.5c.3.5-.1 1-1 1s-1.3-.5-1-1c.3-.6.8-1 1-1 .2 0 .7.4 1 1zm-44.5 1c-.8.5-1.9 1-2.5 1-.5 0-.3-.5.5-1s2-1 2.5-1c.6 0 .3.5-.5 1zm-30.6.8c.3.5-.8.6-2.5.4-1.6-.2-2.9-.6-2.9-.8 0-.8 4.9-.4 5.4.4zm22.1.2l4 .9-4.7-.4c-2.6-.2-5 0-5.3.5-.3.6-1.2 1-1.8 1-.8 0-.7-.4.2-.9 1.1-.7.7-1-1.5-1.4-2.3-.3-2.1-.4 1.1-.5 2.2 0 5.8.3 8 .8zm-16.2.7c-.7.2-2.1.2-3 0-1-.3-.4-.5 1.2-.5 1.7 0 2.4.2 1.8.5zm53.7 2.1c-1.7.8-2.5 3.2-1.1 3.2.5 0 1.2-.6 1.4-1.3.4-.9.6-.9.6.1.1.7-.6 1.5-1.4 1.8-.8.4-1.2 1-.9 1.5.3.5 0 .9-.5.9-.6 0-1.1-.5-1.1-1 0-.6-.9-1-2.1-1-1.2 0-1.7-.4-1.4-1.1.4-.6 1.3-.8 2.1-.5.7.3 1.6.1 1.9-.4.4-.6.1-1-.5-1s-.8-.5-.5-1c.3-.6 1.6-1 2.8-.9 1.6 0 1.8.2.7.7zm4 .6c0 .3-.4.8-1 1.1-.5.3-1 .1-1-.4 0-.6.5-1.1 1-1.1.6 0 1 .2 1 .4zm3.2 3.4c-.7.2-.9.9-.6 1.4.4.7.2.8-.4.4-.6-.4-2.2-.2-3.4.4-1.7.9-1.5.5.7-1.3 1.6-1.4 3.4-2.2 4-1.9.5.3.4.7-.3 1zm7.3-.8c.3.6-.1.7-1 .4-1.1-.5-1.4-.2-.9 1.2.5 1.5.4 1.6-.4.4-1.1-1.5-.7-3 .8-3 .5 0 1.2.4 1.5 1zm-4.2 5c-.7.8-2.2-2.4-1.6-3.4.4-.5 1-.1 1.3 1 .4 1 .6 2.1.3 2.4zm-15.3-.3c0 1.5-.6 2.3-1.7 2.3-1.5 0-1.6-.2-.3-1s1.2-1-.2-1c-1 0-1.8.4-1.8.9s-1 1.3-2.1 1.6c-1.7.6-1.9.9-.8 1.6.9.6.4.7-1.5.3-2.1-.5-2.7-.4-2.2.5.4.6 1.7 1.1 2.8 1.1 1.2 0 1.9.3 1.5.6-.8.9-5.7-.4-5.7-1.5 0-.4 1.9-2.1 4.3-3.7 2.3-1.6 4.3-3.2 4.5-3.5.8-1.6 3.2-.3 3.2 1.8zm8.5.6c1.6-.1 1.7-.1.2.3-1 .3-1.4 1-1 1.7.4.7-.1.6-1-.2-.9-.7-1.7-1-1.7-.7 0 .4-.5.4-1 .1-.6-.4-.8-1.1-.4-1.6.3-.5 1.1-.6 1.7-.2.7.4 2.1.7 3.2.6zm4 1.7c-.3.5-1.2 1-1.8 1-.7 0-.6-.4.3-1 1.9-1.2 2.3-1.2 1.5 0zm-26 4c-.3.5-1.2 1-1.8 1-.7 0-.6-.4.3-1 1.9-1.2 2.3-1.2 1.5 0zm24.9-.2c.2.4-.7.8-2.2.9-2.4.2-2.4.1-.7-.7 1.1-.5 2.1-.9 2.2-.9.1-.1.4.3.7.7zm5.6 1.2c0 .5-.7.7-1.5.4-.8-.4-1.5-.8-1.5-1 0-.2.7-.4 1.5-.4s1.5.4 1.5 1zm-2 2.9c0 1-.9 2.9-2 4.2l-1.9 2.4 1.6-4.3c1.8-4.6 2.3-5.2 2.3-2.3zm-26.6 2.6c-.7 1.6-2.4 2.1-2.4.6 0-.8.7-1.3 2.7-2 .1-.1 0 .6-.3 1.4zm44.6 4.8c0 .7 1.8 4.8 4 9.2 2.2 4.3 3.8 8 3.6 8.2-.2.2-1.8-1.3-3.5-3.4-3.6-4.4-4-3.9-1 1.2 1.2 2 1.9 3.8 1.6 4.1-.7.7-7.7-8.6-7.7-10.3 0-1.2-.4-1.2-2.2.1-3.1 2.2-8.1 2-10.9-.4l-2.4-1.9 4.5-.1c5.2 0 8.3-1.8 10.5-6.1 1.5-2.8 3.5-3.2 3.5-.6zm-36-.9c0 .2-1.1.6-2.5.8-1.3.3-2.2.1-1.9-.3.5-.9 4.4-1.3 4.4-.5zm11.8.3c-1 .2-2.8.2-4 0-1.3-.2-.5-.4 1.7-.4 2.2-.1 3.2.1 2.3.4zm-6.5 2c-1.3.2-3.3.2-4.5 0-1.3-.2-.3-.4 2.2-.4s3.5.2 2.3.4zm20.9 11.3c2 0 4-.5 4.3-1.1 1.1-1.7 6.5 7.9 6.5 11.6 0 1.9-.4 3.5-1 3.5-.5 0-1-.6-1-1.3-.1-.6-.7-2.6-1.6-4.2l-1.4-3 .5 4.2c.3 2.4.1 4.3-.4 4.3-.9 0-1.3-1.5-2.6-9-.6-3.4-.8-3.6-3.9-3.2-2.7.3-4-.3-6.7-2.7l-3.4-3.2 3.5 2.1c1.9 1.1 5.2 2 7.2 2z"/><path d="M134 51.7c0 .4.5 1.5 1 2.3.8 1.3 1 1.3 1-.2 0-.9-.4-2-1-2.3-.5-.3-1-.3-1 .2zM85 101.8c0 .4 1.5 1.6 3.3 2.6l3.2 1.9-2.4-2.6c-2.4-2.7-4.1-3.4-4.1-1.9z"/></svg>